<?xml version="1.0" encoding="UTF-8" standalone="no"?>
<!-- Created with Inkscape (http://www.inkscape.org/) -->

<svg
   xmlns:dc="http://purl.org/dc/elements/1.1/"
   xmlns:cc="http://creativecommons.org/ns#"
   xmlns:rdf="http://www.w3.org/1999/02/22-rdf-syntax-ns#"
   xmlns:svg="http://www.w3.org/2000/svg"
   xmlns="http://www.w3.org/2000/svg"
   xmlns:sodipodi="http://sodipodi.sourceforge.net/DTD/sodipodi-0.dtd"
   xmlns:inkscape="http://www.inkscape.org/namespaces/inkscape"
   id="svg1"
   sodipodi:docname="function.svg"
   viewBox="0 0 60 60"
   sodipodi:version="0.32"
   version="1.0"
   y="0"
   x="0"
   inkscape:version="0.92.3 (2405546, 2018-03-11)">
  <defs
     id="defs860" />
  <sodipodi:namedview
     id="base"
     bordercolor="#666666"
     inkscape:pageshadow="2"
     inkscape:window-width="1853"
     pagecolor="#ffffff"
     inkscape:zoom="6.9465337"
     inkscape:window-x="67"
     borderopacity="1.0"
     inkscape:cx="33.984503"
     inkscape:cy="14.678974"
     inkscape:window-y="27"
     inkscape:window-height="1025"
     inkscape:pageopacity="0.0"
     showgrid="false"
     inkscape:window-maximized="1"
     inkscape:current-layer="svg1" />
  <path
     id="path838"
     style="fill:#333333;stroke-width:1.07784176pt"
     d="m 58.958746,42.998511 c 0,2.530459 -0.19966,4.92895 -0.596865,7.195474 -0.398262,2.254428 -0.911672,4.192136 -1.541284,5.814225 -0.398262,1.012842 -0.790186,1.766151 -1.176827,2.259926 -0.386642,0.494874 -0.901108,0.742312 -1.541285,0.742312 -0.673981,0 -1.238098,-0.206748 -1.691292,-0.621343 -0.441575,-0.413495 -0.662362,-0.960056 -0.662362,-1.638584 0,-0.149562 0.165855,-0.770905 0.496507,-1.864027 0.331709,-1.081026 0.635952,-2.144455 0.911672,-3.19139 0.276775,-1.046934 0.530312,-2.32371 0.762719,-3.830328 0.232407,-1.507717 0.348611,-3.128706 0.348611,-4.866265 0,-2.081771 -0.177475,-4.049172 -0.531368,-5.901101 -0.352837,-1.862928 -0.773283,-3.599387 -1.259226,-5.210478 -0.485943,-1.609992 -0.728915,-2.48427 -0.728915,-2.622835 0,-0.678527 0.220787,-1.21849 0.662362,-1.620988 0.442631,-0.402497 1.005691,-0.604847 1.691292,-0.604847 0.651798,0 1.170489,0.247437 1.557131,0.742312 0.387697,0.482777 0.774339,1.237186 1.160981,2.259926 0.629612,1.598995 1.143022,3.532304 1.541284,5.797729 0.397205,2.266524 0.596865,4.652919 0.596865,7.160282 z m -23.66859,5.055418 4.508705,-5.055418 -2.735014,-3.07152 C 36.40043,39.191278 35.953574,38.690905 35.721166,38.426972 35.500379,38.149842 35.329243,37.880411 35.207757,37.615378 35.086271,37.339348 35.025,37.029227 35.025,36.683914 c 0,-0.828089 0.259874,-1.513216 0.779621,-2.053179 0.518692,-0.541063 1.103936,-0.811594 1.75679,-0.811594 0.629612,0 1.126119,0.09238 1.491633,0.276031 0.364457,0.184752 0.739479,0.541062 1.127176,1.070028 l 2.817414,3.675267 2.817412,-3.675267 c 0.408826,-0.528966 0.790185,-0.885276 1.144079,-1.070028 0.352836,-0.183654 0.845118,-0.276031 1.47473,-0.276031 0.651797,0 1.237042,0.265033 1.75679,0.793999 0.519747,0.528966 0.778565,1.219591 0.778565,2.070774 0,0.345313 -0.06022,0.655434 -0.1817,0.931464 -0.121486,0.265033 -0.298961,0.534464 -0.530312,0.811594 -0.220787,0.263933 -0.663417,0.764306 -1.325779,1.500019 l -2.735013,3.07152 4.507648,5.055418 c 0.28734,0.322218 0.530312,0.673029 0.729971,1.052432 0.209167,0.368407 0.314806,0.804996 0.314806,1.311968 0,0.839086 -0.259873,1.517614 -0.779621,2.035582 -0.518691,0.505872 -1.159925,0.758808 -1.922644,0.758808 -0.496507,0 -0.905332,-0.108872 -1.226477,-0.327717 -0.308469,-0.217745 -0.684546,-0.580653 -1.127177,-1.086524 l -3.695278,-4.555043 -3.696336,4.555043 c -0.386642,0.459683 -0.751099,0.810494 -1.094429,1.052432 -0.342272,0.24194 -0.761662,0.361809 -1.259226,0.361809 -0.762719,0 -1.402896,-0.252936 -1.922643,-0.758808 -0.518691,-0.517968 -0.778565,-1.196496 -0.778565,-2.035582 0,-0.494875 0.08769,-0.914969 0.265155,-1.26028 0.188039,-0.344213 0.446857,-0.71262 0.778566,-1.10412 z m -8.236733,-5.055418 c 0,-1.622087 0.09297,-3.255173 0.281002,-4.900355 0.188039,-1.644084 0.442631,-3.139704 0.762719,-4.485763 0.331709,-1.346057 0.696166,-2.535955 1.093372,-3.571893 0.43101,-1.068928 0.829272,-1.834334 1.193729,-2.294017 0.364458,-0.471781 0.872585,-0.708221 1.525439,-0.708221 0.695109,0 1.259226,0.20235 1.690236,0.604847 0.43101,0.402498 0.646515,0.942461 0.646515,1.620988 0,0.138565 -0.242972,1.012843 -0.729971,2.622835 -0.485943,1.611091 -0.905332,3.34755 -1.259226,5.210478 -0.353893,1.851929 -0.530312,3.81933 -0.530312,5.901101 0,1.622089 0.116204,3.215584 0.347555,4.779387 0.232408,1.564903 0.487,2.870272 0.76272,3.917206 0.276776,1.046935 0.579962,2.099367 0.91167,3.157299 0.331709,1.057931 0.497564,1.690271 0.497564,1.898118 0,0.678528 -0.220787,1.225089 -0.663417,1.638584 -0.441575,0.414595 -0.999353,0.621343 -1.673334,0.621343 -0.641234,0 -1.144079,-0.235341 -1.508537,-0.707121 -0.364457,-0.460783 -0.768,-1.225089 -1.210631,-2.295117 -0.308468,-0.839088 -0.590527,-1.719963 -0.845118,-2.639331 -0.242972,-0.909469 -0.469041,-1.944306 -0.679264,-3.106711 -0.198602,-1.172302 -0.353894,-2.374298 -0.463759,-3.605985 -0.0993,-1.241585 -0.148952,-2.461175 -0.148952,-3.657672 z"
     inkscape:connector-curvature="0" />
  <path
     id="path836"
     sodipodi:nodetypes="cc"
     style="fill:none;stroke:#333333;stroke-width:6.59245348;stroke-linecap:round;stroke-linejoin:round"
     d="M 21.076417,4.4959979 C 8.776779,9.9265078 15.75323,49.607084 4.1487011,54.914174"
     sodipodi:stroke-cmyk="(0.0000000 0.0000000 0.0000000 0.80000001)"
     inkscape:connector-curvature="0" />
  <path
     id="path837"
     style="fill:none;stroke:#333333;stroke-width:6.59245348;stroke-linecap:round;stroke-linejoin:round"
     d="M 5.2225293,24.659648 H 22.551676"
     sodipodi:stroke-cmyk="(0.0000000 0.0000000 0.0000000 0.80000001)"
     inkscape:connector-curvature="0" />
  <metadata
     id="metadata857">
    <rdf:RDF>
      <cc:Work>
        <dc:format>image/svg+xml</dc:format>
        <dc:type
           rdf:resource="http://purl.org/dc/dcmitype/StillImage" />
        <cc:license
           rdf:resource="http://creativecommons.org/licenses/publicdomain/" />
        <dc:publisher>
          <cc:Agent
             rdf:about="http://openclipart.org/">
            <dc:title>Openclipart</dc:title>
          </cc:Agent>
        </dc:publisher>
        <dc:title>ftfunct</dc:title>
        <dc:date>2011-01-31T02:01:33</dc:date>
        <dc:description>Originally uploaded by Danny Allen for OCAL 0.18 this icon is part of the flat theme</dc:description>
        <dc:source>https://openclipart.org/detail/112681/ftfunct-by-anonymous</dc:source>
        <dc:creator>
          <cc:Agent>
            <dc:title>Anonymous</dc:title>
          </cc:Agent>
        </dc:creator>
        <dc:subject>
          <rdf:Bag>
            <rdf:li>flat</rdf:li>
            <rdf:li>icon</rdf:li>
            <rdf:li>theme</rdf:li>
          </rdf:Bag>
        </dc:subject>
      </cc:Work>
      <cc:License
         rdf:about="http://creativecommons.org/licenses/publicdomain/">
        <cc:permits
           rdf:resource="http://creativecommons.org/ns#Reproduction" />
        <cc:permits
           rdf:resource="http://creativecommons.org/ns#Distribution" />
        <cc:permits
           rdf:resource="http://creativecommons.org/ns#DerivativeWorks" />
      </cc:License>
    </rdf:RDF>
  </metadata>
</svg>
