<?xml version="1.0" encoding="UTF-8" standalone="no"?>
<svg
   xmlns:dc="http://purl.org/dc/elements/1.1/"
   xmlns:cc="http://creativecommons.org/ns#"
   xmlns:rdf="http://www.w3.org/1999/02/22-rdf-syntax-ns#"
   xmlns:svg="http://www.w3.org/2000/svg"
   xmlns="http://www.w3.org/2000/svg"
   xmlns:sodipodi="http://sodipodi.sourceforge.net/DTD/sodipodi-0.dtd"
   xmlns:inkscape="http://www.inkscape.org/namespaces/inkscape"
   width="300"
   height="300"
   viewBox="0 0 300.00001 300"
   overflow="visible"
   enable-background="new 0 0 617.0444 301"
   xml:space="preserve"
   version="1.1"
   id="svg865"
   sodipodi:docname="Fxx.svg"
   style="overflow:visible"
   inkscape:version="0.92.3 (2405546, 2018-03-11)"><metadata
   id="metadata871"><rdf:RDF><cc:Work
       rdf:about=""><dc:format>image/svg+xml</dc:format><dc:type
         rdf:resource="http://purl.org/dc/dcmitype/StillImage" /><dc:title></dc:title></cc:Work></rdf:RDF></metadata><defs
   id="defs869" /><sodipodi:namedview
   pagecolor="#ffffff"
   bordercolor="#666666"
   borderopacity="1"
   objecttolerance="10"
   gridtolerance="10"
   guidetolerance="10"
   inkscape:pageopacity="0"
   inkscape:pageshadow="2"
   inkscape:window-width="1853"
   inkscape:window-height="1025"
   id="namedview867"
   showgrid="false"
   inkscape:pagecheckerboard="true"
   inkscape:zoom="2.148954"
   inkscape:cx="166.59267"
   inkscape:cy="150.5"
   inkscape:window-x="67"
   inkscape:window-y="27"
   inkscape:window-maximized="1"
   inkscape:current-layer="svg865" />
			<path
   d="m 142.40669,93.096073 -2.3828,8.500007 h -19.5313 l -15.6953,58.6802 c -7.234403,25.2188 -14.132803,44.7734 -20.710903,58.6563 -9.335898,19.5938 -19.382798,33.125 -30.132798,40.5938 -8.1719,5.7109 -16.3516,8.5703 -24.5313,8.5703 -5.3281,0 -9.8672,-1.6016 -13.6016,-4.7969 -2.75,-2.2266 -4.1328,-5.1172 -4.1328,-8.6719 0,-2.8438 1.125,-5.3125 3.3516,-7.3984 2.2422,-2.0938 4.9844,-3.1328 8.2266,-3.1328 2.375,0 4.3672,0.75 5.9844,2.2656 1.6328,1.5 2.4375,3.2344 2.4375,5.1875 0,1.9531 -0.8516,3.7656 -2.5547,5.4531 -1.2969,1.2422 -1.9453,2.1719 -1.9453,2.7969 0,0.7969 0.3125,1.4219 0.9219,1.8672 0.7891,0.6172 2.0156,0.9297 3.6719,0.9297 3.7656,0 7.7188,-1.1953 11.8672,-3.5703 4.1641,-2.3828 7.8594,-5.9297 11.0859,-10.6406 3.2422,-4.7266 6.2969,-11.5313 9.1875,-20.4297 1.2969,-3.6797 4.7734,-15.8047 10.4375,-36.3672 l 25.187498,-89.9927 H 74.070789 l 1.8906,-8.500007 c 8.117198,0 13.789098,-0.5 17.023398,-1.5156 3.2266,-1.0156 6.1875,-2.9531 8.875003,-5.8203 2.6875,-2.8594 5.8906,-8.2109 9.6094,-16.0547 4.9844,-10.5703 9.75,-18.7656 14.3125,-24.5859 6.2422,-7.8359 12.8047,-13.7188 19.6875,-17.6406 6.8828,-3.9218 13.3672,-5.8828 19.4453,-5.8828 6.4141,0 11.5625,1.6953 15.4453,5.0703 3.8828,3.3828 5.8281,7.0469 5.8281,11 0,3.0781 -1.0156,5.6641 -3.0313,7.7734 -2.0157,2.1093 -4.6016,3.1563 -7.7578,3.1563 -2.7188,0 -4.9375,-0.7891 -6.6484,-2.375 -1.7109,-1.5781 -2.5625,-3.4688 -2.5625,-5.6719 0,-1.4063 0.5781,-3.1406 1.75,-5.2109 1.1641,-2.0625 1.75,-3.4531 1.75,-4.1563 0,-1.2266 -0.3672,-2.1484 -1.0859,-2.7656 -1.0469,-0.875 -2.5781,-1.3203 -4.5938,-1.3203 -5.0781,0 -9.625,1.8281 -13.6563,5.4766 -5.3984,4.8438 -10.2266,12.4141 -14.4922,22.7266 -2.1797,5.3906 -6.4688,17.9844 -12.8672,37.7969 h 19.4142 z"
   id="path857"
   inkscape:connector-curvature="0" />
			
			<path
   d="m 215.02811,144.07582 c 4.2891,4.5469 7.5313,9.0859 9.7266,13.625 1.5625,3.2344 4.1406,11.7344 7.7188,25.4844 l 11.5313,-17.6172 c 3.0547,-4.2656 6.7656,-8.3359 11.1328,-12.2109 4.3672,-3.875 8.2109,-6.5234 11.5391,-7.9453 2.0938,-0.8906 4.4063,-1.3359 6.9375,-1.3359 3.7578,0 6.75,1.0391 8.9766,3.1016 2.2266,2.0625 3.3438,4.5781 3.3438,7.5313 0,3.4141 -0.6563,5.75 -1.9609,7 -2.4375,2.25 -5.2188,3.3672 -8.3516,3.3672 -1.8281,0 -3.7813,-0.4141 -5.8672,-1.2578 -4.0938,-1.4922 -6.8359,-2.2422 -8.2266,-2.2422 -2.0938,0 -4.5703,1.2422 -7.4375,3.7188 -5.3906,4.6016 -11.8281,13.4922 -19.3125,26.6641 l 10.7734,45.0396 c 1.625,6.9219 2.9922,11.0625 4.1016,12.4219 1.1094,1.3594 2.2188,2.0391 3.3281,2.0391 1.7969,0 3.8906,-1.0078 6.2813,-3.0234 4.6953,-4.0313 8.7109,-9.2969 12.0469,-15.7969 l 4.625,2.375 c -5.4688,10.3516 -12.4063,18.9453 -20.8203,25.7813 -4.7734,3.8516 -8.8047,5.7813 -12.1016,5.7813 -4.8594,0 -8.7188,-2.7188 -11.5781,-8.1484 -1.8281,-3.4219 -5.5938,-18.1563 -11.3125,-44.2188 -13.7969,23.7188 -24.8516,38.9844 -33.1641,45.8047 -5.3984,4.375 -10.6172,6.5625 -15.6563,6.5625 -3.5391,0 -6.7578,-1.2656 -9.6797,-3.7813 -2.125,-1.9063 -3.1875,-4.4688 -3.1875,-7.6875 0,-2.8594 0.9688,-5.25 2.9063,-7.1641 1.9375,-1.9063 4.3203,-2.8672 7.1328,-2.8672 2.8125,0 5.8125,1.4609 8.9844,4.3672 2.2891,2.0938 4.0547,3.1328 5.2891,3.1328 1.0547,0 2.4219,-0.6953 4.0938,-2.1016 4.1406,-3.3281 9.7734,-10.5234 16.9063,-21.5703 7.1329,-11.0469 11.8047,-19.0234 14.0078,-23.9375 -5.4453,-21.7036 -8.3828,-33.188 -8.8203,-34.4458 -2.0078,-5.8047 -4.625,-9.9141 -7.8438,-12.3281 -3.2188,-2.4063 -7.9688,-3.6172 -14.2344,-3.6172 -2,0 -4.3125,0.0938 -6.9219,0.2656 v -4.7656 z"
   id="path861"
   inkscape:connector-curvature="0" />
			
</svg>