<?xml version="1.0" encoding="UTF-8" standalone="no"?>
<svg
   xmlns:dc="http://purl.org/dc/elements/1.1/"
   xmlns:cc="http://creativecommons.org/ns#"
   xmlns:rdf="http://www.w3.org/1999/02/22-rdf-syntax-ns#"
   xmlns:svg="http://www.w3.org/2000/svg"
   xmlns="http://www.w3.org/2000/svg"
   xmlns:sodipodi="http://sodipodi.sourceforge.net/DTD/sodipodi-0.dtd"
   xmlns:inkscape="http://www.inkscape.org/namespaces/inkscape"
   inkscape:version="1.0 (6e3e5246a0, 2020-05-07)"
   sodipodi:docname="grid.svg"
   id="svg10"
   xml:space="preserve"
   enable-background="new 0 0 1000 1000"
   viewBox="0 0 1000 1000"
   y="0px"
   x="0px"
   version="1.1"><defs
   id="defs14" /><sodipodi:namedview
   inkscape:current-layer="svg10"
   inkscape:window-maximized="1"
   inkscape:window-y="27"
   inkscape:window-x="67"
   inkscape:cy="500"
   inkscape:cx="500"
   inkscape:zoom="0.932"
   inkscape:pagecheckerboard="true"
   showgrid="false"
   id="namedview12"
   inkscape:window-height="1385"
   inkscape:window-width="3373"
   inkscape:pageshadow="2"
   inkscape:pageopacity="0"
   guidetolerance="10"
   gridtolerance="10"
   objecttolerance="10"
   borderopacity="1"
   bordercolor="#666666"
   pagecolor="#ffffff" />
<metadata
   id="metadata2"> Svg Vector Icons : http://www.onlinewebfonts.com/icon <rdf:RDF><cc:Work
     rdf:about=""><dc:format>image/svg+xml</dc:format><dc:type
       rdf:resource="http://purl.org/dc/dcmitype/StillImage" /><dc:title></dc:title></cc:Work></rdf:RDF></metadata>
<g
   style="fill:#000000;fill-opacity:1"
   id="g8"><g
     style="fill:#000000;fill-opacity:1"
     id="g6"
     transform="translate(0.000000,511.000000) scale(0.100000,-0.100000)"><path
       style="fill:#000000;fill-opacity:1"
       id="path4"
       d="M521.3,4979.1c-164.8-58.6-360-262.4-403.4-420.8C102.7,4502,98.3,3057.5,100.5,64.4l6.5-4411.5l58.6-101.9c32.5-54.2,104.1-138.8,158.3-186.5c193-169.2-210.4-156.2,4673.9-156.2c4975.4,0,4493.9-19.5,4708.6,193c212.6,214.7,193-266.8,193,4708.6c0,4975.4,19.5,4493.9-193,4708.6c-214.7,212.5,268.9,193-4717.3,193C1319.4,5009.5,592.8,5005.2,521.3,4979.1z M2308.4,3721.2v-921.8h-921.8H464.9v841.5c0,629,6.5,852.4,28.2,893.6c52.1,104.1,75.9,108.4,976,108.4h839.4V3721.2z M4802.7,3721.2v-921.8H3739.9H2677.2v921.8V4643h1062.7h1062.8V3721.2z M7318.6,3721.2v-921.8H6255.8H5193.1v921.8V4643h1062.8h1062.7V3721.2z M9409.4,4621.3c117.1-43.4,121.4-75.9,121.4-986.8v-835H8609h-921.8v921.8V4643h832.9C8999.4,4643,9376.8,4634.3,9409.4,4621.3z M2308.4,1367.9V305.2h-921.8H464.9v1062.8v1062.8h921.8h921.8V1367.9z M4802.7,1367.9V305.2H3739.9H2677.2v1047.6c0,576.9,6.5,1056.3,15.2,1062.8c6.5,8.7,485.8,15.2,1062.7,15.2h1047.6V1367.9z M7314.2,1363.6l4.3-1058.4H6255.8H5193.1v1062.8v1062.8l1058.4-4.3l1056.3-6.5L7314.2,1363.6z M9530.8,1367.9V305.2H8609h-921.8v1062.8v1062.8H8609h921.8V1367.9z M2308.4-1139.3v-1071.4h-921.8H464.9v1071.4V-67.9h921.8l921.8,2.2V-1139.3z M4802.7-1139.3v-1071.4l-1056.2,4.3l-1058.4,6.5l-6.5,1041.1c-2.2,572.6,0,1051.9,4.3,1064.9c6.5,19.5,295,26,1062.7,26h1054.1V-1139.3z M7307.7-1137.1v-1062.8l-1056.3-6.5l-1058.4-4.3v1071.4V-67.9L6251.5-70l1056.3-4.3V-1137.1z M9530.8-1139.3v-1071.4H8609h-921.8v1071.4V-65.7l921.8-2.2h921.8V-1139.3z M2308.4-3501.2v-923.9l-867.6,6.5l-865.4,6.5l-49.9,49.9l-49.9,49.9l-6.5,865.4l-6.5,867.5h924h921.8V-3501.2z M4802.7-3501.2V-4423H3739.9H2677.2v921.8v921.8h1062.7h1062.8V-3501.2z M7318.6-3501.2V-4423H6255.8H5193.1v921.8v921.8h1062.8h1062.7V-3501.2z M9530.8-3414.4c0-598.6-6.5-848-26-889.2c-52.1-117.1-73.7-119.3-982.5-119.3h-835v921.8v921.8H8609h921.8V-3414.4z" /></g></g>
</svg>
