<?xml version="1.0" encoding="UTF-8" standalone="no"?>
<svg
   xmlns:dc="http://purl.org/dc/elements/1.1/"
   xmlns:cc="http://creativecommons.org/ns#"
   xmlns:rdf="http://www.w3.org/1999/02/22-rdf-syntax-ns#"
   xmlns:svg="http://www.w3.org/2000/svg"
   xmlns="http://www.w3.org/2000/svg"
   xmlns:sodipodi="http://sodipodi.sourceforge.net/DTD/sodipodi-0.dtd"
   xmlns:inkscape="http://www.inkscape.org/namespaces/inkscape"
   inkscape:version="1.0 (6e3e5246a0, 2020-05-07)"
   sodipodi:docname="legend.svg"
   id="svg8"
   xml:space="preserve"
   enable-background="new 0 0 1000 1000"
   viewBox="0 0 1000 1000"
   y="0px"
   x="0px"
   version="1.1"><defs
   id="defs12" /><sodipodi:namedview
   inkscape:current-layer="svg8"
   inkscape:window-maximized="0"
   inkscape:window-y="27"
   inkscape:window-x="67"
   inkscape:cy="459.88798"
   inkscape:cx="503.85541"
   inkscape:zoom="0.65902352"
   showgrid="false"
   id="namedview10"
   inkscape:window-height="1324"
   inkscape:window-width="2022"
   inkscape:pageshadow="2"
   inkscape:pageopacity="0"
   guidetolerance="10"
   gridtolerance="10"
   objecttolerance="10"
   borderopacity="1"
   bordercolor="#666666"
   pagecolor="#ffffff" />
<metadata
   id="metadata2"> Svg Vector Icons : http://www.onlinewebfonts.com/icon <rdf:RDF><cc:Work
     rdf:about=""><dc:format>image/svg+xml</dc:format><dc:type
       rdf:resource="http://purl.org/dc/dcmitype/StillImage" /><dc:title></dc:title></cc:Work></rdf:RDF></metadata>
<path
   style="fill:#000000;fill-opacity:1"
   sodipodi:nodetypes="ssssssssssssssssssssssscsssssscssssssssssssscscccccccccccccccccccc"
   d="m 870.03153,107.85031 h -735 c -67.600004,0 -122.019171,56.70166 -122.500004,126.5 L 8.8060134,775.14993 c -0.4801446,69.69834 54.8999996,126.4 122.4999966,126.4 h 735 c 67.6,0 122.01908,-56.70166 122.5,-126.5 l 3.72552,-540.69962 c 0.48092,-69.79834 -54.9,-126.5 -122.5,-126.5 z m 57.57448,667.19962 c -0.24046,34.89917 -27.5,63.2 -61.3,63.2 h -735 c -33.799997,0 -61.539769,-28.40083 -61.299997,-63.2 l 3.725513,-540.69962 c 0.240461,-34.89917 27.500004,-63.2 61.300004,-63.2 h 735 c 33.8,0 61.53977,28.40083 61.3,63.2 z M 806.3,231.3 H 285.6 c -16.9,0 -30.6,14.2 -30.6,31.6 0,17.4 13.7,31.6 30.6,31.6 h 520.6 c 16.9,0 30.6,-14.1 30.6,-31.6 0.1,-17.4 -13.6,-31.6 -30.5,-31.6 z m 0,158.1 H 285.6 c -16.9,0 -30.6,14.1 -30.6,31.6 0,17.4 13.7,31.6 30.6,31.6 h 520.6 c 16.9,0 30.6,-14.2 30.6,-31.6 0.1,-17.5 -13.6,-31.6 -30.5,-31.6 z m 0,158 H 285.6 c -16.9,0 -30.6,14.2 -30.6,31.6 0,17.4 13.7,31.6 30.6,31.6 h 520.6 c 16.9,0 30.6,-14.1 30.6,-31.6 0,-17.5 -13.6,-31.6 -30.5,-31.6 z m 0,158.1 H 285.6 c -16.9,0 -30.6,14.1 -30.6,31.6 0,17.4 13.7,31.6 30.6,31.6 h 520.6 c 16.9,0 30.6,-14.1 30.6,-31.6 0.1,-17.5 -13.6,-31.6 -30.5,-31.6 z m -643.2,-411 h 61.3 v -63.2 h -61.3 z m 0,158.1 h 61.3 v -63.2 h -61.3 z m 0,158 h 61.3 v -63.2 h -61.3 z m 0,158.1 h 61.3 v -63.2 h -61.3 z"
   id="path4" />
</svg>
